M48
; DRILL file {KiCad (5.1.4)-1} date 2024-05-04 5:29:18 PM
; FORMAT={-:-/ absolute / inch / decimal}
; #@! TF.CreationDate,2024-05-04T17:29:18-04:00
; #@! TF.GenerationSoftware,Kicad,Pcbnew,(5.1.4)-1
; #@! TF.FileFunction,NonPlated,1,2,NPTH
FMAT,2
INCH
T1C0.0689
T2C0.1570
T3C0.5433
%
G90
G05
T1
X4.5812Y-2.5938
X5.3312Y-3.3438
X5.7313Y-3.3438
X5.3312Y-4.0938
X5.7313Y-4.0938
X3.8312Y-3.3438
X4.2313Y-3.3438
X3.8312Y-4.0938
X4.2313Y-4.0938
X3.8312Y-2.5938
X4.2313Y-2.5938
X4.5812Y-3.3438
X4.9813Y-3.3438
X4.5812Y-4.0938
X4.9813Y-4.0938
X4.9813Y-2.5938
T2
X4.7812Y-4.0938
X4.7812Y-2.5938
X5.5312Y-3.3438
X5.5312Y-4.0938
X4.0312Y-3.3438
X4.0312Y-4.0938
X4.0312Y-2.5938
X4.7812Y-3.3438
T3
X2.375Y-3.3438
T0
M30
