M48
; DRILL file {KiCad (5.1.4)-1} date 2024-05-04 5:29:18 PM
; FORMAT={-:-/ absolute / inch / decimal}
; #@! TF.CreationDate,2024-05-04T17:29:18-04:00
; #@! TF.GenerationSoftware,Kicad,Pcbnew,(5.1.4)-1
; #@! TF.FileFunction,Plated,1,2,PTH
FMAT,2
INCH
T1C0.0197
T2C0.0394
T3C0.0579
T4C0.0709
%
G90
G05
T2
X1.275Y-1.4187
X1.275Y-2.0187
X1.375Y-1.4187
X1.375Y-2.0187
X1.475Y-1.4187
X1.475Y-2.0187
X1.575Y-1.4187
X1.575Y-2.0187
X1.675Y-1.4187
X1.675Y-2.0187
X1.775Y-1.4187
X1.775Y-2.0187
X1.875Y-1.4187
X1.875Y-2.0187
X1.975Y-1.4187
X1.975Y-2.0187
X2.075Y-1.4187
X2.075Y-2.0187
X2.175Y-1.4187
X2.175Y-2.0187
X2.275Y-1.4187
X2.275Y-2.0187
X2.375Y-1.4187
X2.375Y-2.0187
X2.475Y-1.4187
X2.475Y-2.0187
X5.4385Y-2.2869
X5.4385Y-2.8578
X5.5369Y-2.8578
X5.6353Y-2.2869
X5.6353Y-2.8578
T3
X5.3812Y-3.2437
X5.4328Y-3.1863
X5.6297Y-3.1666
X5.6312Y-3.1437
X5.3812Y-3.9937
X5.4328Y-3.9363
X5.6297Y-3.9166
X5.6312Y-3.8937
X3.8813Y-3.2437
X3.9328Y-3.1863
X4.1297Y-3.1666
X4.1312Y-3.1437
X3.8813Y-3.9937
X3.9328Y-3.9363
X4.1297Y-3.9166
X4.1312Y-3.8937
X3.8813Y-2.4937
X3.9328Y-2.4363
X4.1297Y-2.4166
X4.1312Y-2.3937
X4.6312Y-3.2437
X4.6828Y-3.1863
X4.8797Y-3.1666
X4.8812Y-3.1437
X4.6312Y-3.9937
X4.6828Y-3.9363
X4.8797Y-3.9166
X4.8812Y-3.8937
X4.6312Y-2.4937
X4.6828Y-2.4363
X4.8797Y-2.4166
X4.8812Y-2.3937
T1
G00X2.6923Y-2.5272
M15
G01X2.8577Y-2.5272
M16
G05
T2
G00X1.7199Y-2.9166
M15
G01X1.8301Y-2.9166
M16
G05
T4
G00X5.3125Y-2.5468
M15
G01X5.3125Y-2.5782
M16
G05
G00X5.7613Y-2.5468
M15
G01X5.7613Y-2.5782
M16
G05
T0
M30
