G04 #@! TF.GenerationSoftware,KiCad,Pcbnew,(5.1.4)-1*
G04 #@! TF.CreationDate,2024-05-04T17:29:15-04:00*
G04 #@! TF.ProjectId,micarrizo-pad,6d696361-7272-4697-9a6f-2d7061642e6b,rev?*
G04 #@! TF.SameCoordinates,Original*
G04 #@! TF.FileFunction,Copper,L1,Top*
G04 #@! TF.FilePolarity,Positive*
%FSLAX46Y46*%
G04 Gerber Fmt 4.6, Leading zero omitted, Abs format (unit mm)*
G04 Created by KiCad (PCBNEW (5.1.4)-1) date 2024-05-04 17:29:15*
%MOMM*%
%LPD*%
G04 APERTURE LIST*
%ADD10O,2.000000X3.000000*%
%ADD11C,2.000000*%
%ADD12R,2.800000X3.600000*%
%ADD13C,6.000000*%
%ADD14C,5.000000*%
%ADD15C,2.250000*%
%ADD16C,2.250000*%
%ADD17C,0.250000*%
G04 APERTURE END LIST*
D10*
X62865000Y-51276250D03*
X62865000Y-36036250D03*
X60325000Y-51276250D03*
X60325000Y-36036250D03*
X57785000Y-51276250D03*
X57785000Y-36036250D03*
X55245000Y-51276250D03*
X55245000Y-36036250D03*
X52705000Y-51276250D03*
X52705000Y-36036250D03*
X50165000Y-51276250D03*
X50165000Y-36036250D03*
X47625000Y-51276250D03*
X47625000Y-36036250D03*
X45085000Y-51276250D03*
X45085000Y-36036250D03*
X42545000Y-51276250D03*
X42545000Y-36036250D03*
X40005000Y-51276250D03*
X40005000Y-36036250D03*
X37465000Y-51276250D03*
X37465000Y-36036250D03*
X34925000Y-51276250D03*
X34925000Y-36036250D03*
X32385000Y-51276250D03*
X32385000Y-36036250D03*
D11*
X143137500Y-72587500D03*
X140637500Y-72587500D03*
X138137500Y-72587500D03*
X143137500Y-58087500D03*
X138137500Y-58087500D03*
D12*
X146337500Y-65087500D03*
X134937500Y-65087500D03*
D13*
X70485000Y-64191250D03*
D14*
X45085000Y-74081250D03*
D15*
X137993750Y-99981250D03*
X137338751Y-100711250D03*
D16*
X136683750Y-101441250D02*
X137993752Y-99981250D01*
D15*
X143033750Y-98901250D03*
X143013750Y-99191250D03*
D16*
X142993750Y-99481250D02*
X143033750Y-98901250D01*
D15*
X118943750Y-99981250D03*
X118288751Y-100711250D03*
D16*
X117633750Y-101441250D02*
X118943752Y-99981250D01*
D15*
X123983750Y-98901250D03*
X123963750Y-99191250D03*
D16*
X123943750Y-99481250D02*
X123983750Y-98901250D01*
D15*
X99893750Y-99981250D03*
X99238751Y-100711250D03*
D16*
X98583750Y-101441250D02*
X99893752Y-99981250D01*
D15*
X104933750Y-98901250D03*
X104913750Y-99191250D03*
D16*
X104893750Y-99481250D02*
X104933750Y-98901250D01*
D15*
X137993750Y-80931250D03*
X137338751Y-81661250D03*
D16*
X136683750Y-82391250D02*
X137993752Y-80931250D01*
D15*
X143033750Y-79851250D03*
X143013750Y-80141250D03*
D16*
X142993750Y-80431250D02*
X143033750Y-79851250D01*
D15*
X118943750Y-80931250D03*
X118288751Y-81661250D03*
D16*
X117633750Y-82391250D02*
X118943752Y-80931250D01*
D15*
X123983750Y-79851250D03*
X123963750Y-80141250D03*
D16*
X123943750Y-80431250D02*
X123983750Y-79851250D01*
D15*
X99893750Y-80931250D03*
X99238751Y-81661250D03*
D16*
X98583750Y-82391250D02*
X99893752Y-80931250D01*
D15*
X104933750Y-79851250D03*
X104913750Y-80141250D03*
D16*
X104893750Y-80431250D02*
X104933750Y-79851250D01*
D15*
X118943750Y-61881250D03*
X118288751Y-62611250D03*
D16*
X117633750Y-63341250D02*
X118943752Y-61881250D01*
D15*
X123983750Y-60801250D03*
X123963750Y-61091250D03*
D16*
X123943750Y-61381250D02*
X123983750Y-60801250D01*
D15*
X99893750Y-61881250D03*
X99238751Y-62611250D03*
D16*
X98583750Y-63341250D02*
X99893752Y-61881250D01*
D15*
X104933750Y-60801250D03*
X104913750Y-61091250D03*
D16*
X104893750Y-61381250D02*
X104933750Y-60801250D01*
D17*
X98583750Y-79621250D02*
X98583750Y-82391250D01*
X98583750Y-63341250D02*
X98583750Y-79621250D01*
X98583750Y-82391250D02*
X98583750Y-101441250D01*
X93575000Y-55562500D02*
X99893750Y-61881250D01*
X57943750Y-55562500D02*
X93575000Y-55562500D01*
X57785000Y-51276250D02*
X57785000Y-55403750D01*
X57785000Y-55403750D02*
X57943750Y-55562500D01*
X117633750Y-82391250D02*
X117633750Y-101441250D01*
X117633750Y-66040000D02*
X117633750Y-63341250D01*
X117633750Y-82391250D02*
X117633750Y-66040000D01*
X117633750Y-63341250D02*
X117633750Y-62865000D01*
X117633750Y-62865000D02*
X109537500Y-54768750D01*
X109537500Y-54768750D02*
X60325000Y-54768750D01*
X60325000Y-54768750D02*
X60325000Y-51276250D01*
X136683750Y-82391250D02*
X136683750Y-101441250D01*
X136683750Y-82391250D02*
X136683750Y-74771250D01*
X136683750Y-74771250D02*
X136525000Y-74612500D01*
X136525000Y-74612500D02*
X131762500Y-74612500D01*
X62865000Y-51276250D02*
X62865000Y-54102000D01*
X131699000Y-54102000D02*
X131762500Y-54165500D01*
X62865000Y-54102000D02*
X131699000Y-54102000D01*
X131762500Y-74612500D02*
X131762500Y-54165500D01*
X45085000Y-74081250D02*
X45085000Y-66833750D01*
X55245000Y-56673750D02*
X55245000Y-51276250D01*
X45085000Y-66833750D02*
X55245000Y-56673750D01*
X64115000Y-36036250D02*
X62865000Y-36036250D01*
X117500463Y-36036250D02*
X64115000Y-36036250D01*
X138137500Y-56673287D02*
X117500463Y-36036250D01*
X138137500Y-58087500D02*
X138137500Y-56673287D01*
M02*
