G04 #@! TF.GenerationSoftware,KiCad,Pcbnew,(5.1.4)-1*
G04 #@! TF.CreationDate,2024-05-04T17:29:15-04:00*
G04 #@! TF.ProjectId,micarrizo-pad,6d696361-7272-4697-9a6f-2d7061642e6b,rev?*
G04 #@! TF.SameCoordinates,Original*
G04 #@! TF.FileFunction,Legend,Bot*
G04 #@! TF.FilePolarity,Positive*
%FSLAX46Y46*%
G04 Gerber Fmt 4.6, Leading zero omitted, Abs format (unit mm)*
G04 Created by KiCad (PCBNEW (5.1.4)-1) date 2024-05-04 17:29:15*
%MOMM*%
%LPD*%
G04 APERTURE LIST*
%ADD10C,0.120000*%
%ADD11C,0.150000*%
G04 APERTURE END LIST*
D10*
X149431250Y-106231250D02*
X149431250Y-102331250D01*
X147431250Y-106231250D02*
X147431250Y-102331250D01*
X149431250Y-106231250D02*
X147431250Y-106231250D01*
X130381250Y-106231250D02*
X130381250Y-102331250D01*
X128381250Y-106231250D02*
X128381250Y-102331250D01*
X130381250Y-106231250D02*
X128381250Y-106231250D01*
X111331250Y-106231250D02*
X111331250Y-102331250D01*
X109331250Y-106231250D02*
X109331250Y-102331250D01*
X111331250Y-106231250D02*
X109331250Y-106231250D01*
X79581250Y-106231250D02*
X79581250Y-102331250D01*
X77581250Y-106231250D02*
X77581250Y-102331250D01*
X79581250Y-106231250D02*
X77581250Y-106231250D01*
X149431250Y-87181250D02*
X149431250Y-83281250D01*
X147431250Y-87181250D02*
X147431250Y-83281250D01*
X149431250Y-87181250D02*
X147431250Y-87181250D01*
X130381250Y-87181250D02*
X130381250Y-83281250D01*
X128381250Y-87181250D02*
X128381250Y-83281250D01*
X130381250Y-87181250D02*
X128381250Y-87181250D01*
X111331250Y-87181250D02*
X111331250Y-83281250D01*
X109331250Y-87181250D02*
X109331250Y-83281250D01*
X111331250Y-87181250D02*
X109331250Y-87181250D01*
X130381250Y-68131250D02*
X130381250Y-64231250D01*
X128381250Y-68131250D02*
X128381250Y-64231250D01*
X130381250Y-68131250D02*
X128381250Y-68131250D01*
X111331250Y-68131250D02*
X111331250Y-64231250D01*
X109331250Y-68131250D02*
X109331250Y-64231250D01*
X111331250Y-68131250D02*
X109331250Y-68131250D01*
D11*
X148883630Y-99274404D02*
X147883630Y-99274404D01*
X147883630Y-99512500D01*
X147931250Y-99655357D01*
X148026488Y-99750595D01*
X148121726Y-99798214D01*
X148312202Y-99845833D01*
X148455059Y-99845833D01*
X148645535Y-99798214D01*
X148740773Y-99750595D01*
X148836011Y-99655357D01*
X148883630Y-99512500D01*
X148883630Y-99274404D01*
X148883630Y-100322023D02*
X148883630Y-100512500D01*
X148836011Y-100607738D01*
X148788392Y-100655357D01*
X148645535Y-100750595D01*
X148455059Y-100798214D01*
X148074107Y-100798214D01*
X147978869Y-100750595D01*
X147931250Y-100702976D01*
X147883630Y-100607738D01*
X147883630Y-100417261D01*
X147931250Y-100322023D01*
X147978869Y-100274404D01*
X148074107Y-100226785D01*
X148312202Y-100226785D01*
X148407440Y-100274404D01*
X148455059Y-100322023D01*
X148502678Y-100417261D01*
X148502678Y-100607738D01*
X148455059Y-100702976D01*
X148407440Y-100750595D01*
X148312202Y-100798214D01*
X129833630Y-99274404D02*
X128833630Y-99274404D01*
X128833630Y-99512500D01*
X128881250Y-99655357D01*
X128976488Y-99750595D01*
X129071726Y-99798214D01*
X129262202Y-99845833D01*
X129405059Y-99845833D01*
X129595535Y-99798214D01*
X129690773Y-99750595D01*
X129786011Y-99655357D01*
X129833630Y-99512500D01*
X129833630Y-99274404D01*
X129262202Y-100417261D02*
X129214583Y-100322023D01*
X129166964Y-100274404D01*
X129071726Y-100226785D01*
X129024107Y-100226785D01*
X128928869Y-100274404D01*
X128881250Y-100322023D01*
X128833630Y-100417261D01*
X128833630Y-100607738D01*
X128881250Y-100702976D01*
X128928869Y-100750595D01*
X129024107Y-100798214D01*
X129071726Y-100798214D01*
X129166964Y-100750595D01*
X129214583Y-100702976D01*
X129262202Y-100607738D01*
X129262202Y-100417261D01*
X129309821Y-100322023D01*
X129357440Y-100274404D01*
X129452678Y-100226785D01*
X129643154Y-100226785D01*
X129738392Y-100274404D01*
X129786011Y-100322023D01*
X129833630Y-100417261D01*
X129833630Y-100607738D01*
X129786011Y-100702976D01*
X129738392Y-100750595D01*
X129643154Y-100798214D01*
X129452678Y-100798214D01*
X129357440Y-100750595D01*
X129309821Y-100702976D01*
X129262202Y-100607738D01*
X110783630Y-99274404D02*
X109783630Y-99274404D01*
X109783630Y-99512500D01*
X109831250Y-99655357D01*
X109926488Y-99750595D01*
X110021726Y-99798214D01*
X110212202Y-99845833D01*
X110355059Y-99845833D01*
X110545535Y-99798214D01*
X110640773Y-99750595D01*
X110736011Y-99655357D01*
X110783630Y-99512500D01*
X110783630Y-99274404D01*
X109783630Y-100179166D02*
X109783630Y-100845833D01*
X110783630Y-100417261D01*
X81033630Y-103243154D02*
X80033630Y-103243154D01*
X80033630Y-103481250D01*
X80081250Y-103624107D01*
X80176488Y-103719345D01*
X80271726Y-103766964D01*
X80462202Y-103814583D01*
X80605059Y-103814583D01*
X80795535Y-103766964D01*
X80890773Y-103719345D01*
X80986011Y-103624107D01*
X81033630Y-103481250D01*
X81033630Y-103243154D01*
X80033630Y-104671726D02*
X80033630Y-104481250D01*
X80081250Y-104386011D01*
X80128869Y-104338392D01*
X80271726Y-104243154D01*
X80462202Y-104195535D01*
X80843154Y-104195535D01*
X80938392Y-104243154D01*
X80986011Y-104290773D01*
X81033630Y-104386011D01*
X81033630Y-104576488D01*
X80986011Y-104671726D01*
X80938392Y-104719345D01*
X80843154Y-104766964D01*
X80605059Y-104766964D01*
X80509821Y-104719345D01*
X80462202Y-104671726D01*
X80414583Y-104576488D01*
X80414583Y-104386011D01*
X80462202Y-104290773D01*
X80509821Y-104243154D01*
X80605059Y-104195535D01*
X148883630Y-80224404D02*
X147883630Y-80224404D01*
X147883630Y-80462500D01*
X147931250Y-80605357D01*
X148026488Y-80700595D01*
X148121726Y-80748214D01*
X148312202Y-80795833D01*
X148455059Y-80795833D01*
X148645535Y-80748214D01*
X148740773Y-80700595D01*
X148836011Y-80605357D01*
X148883630Y-80462500D01*
X148883630Y-80224404D01*
X147883630Y-81700595D02*
X147883630Y-81224404D01*
X148359821Y-81176785D01*
X148312202Y-81224404D01*
X148264583Y-81319642D01*
X148264583Y-81557738D01*
X148312202Y-81652976D01*
X148359821Y-81700595D01*
X148455059Y-81748214D01*
X148693154Y-81748214D01*
X148788392Y-81700595D01*
X148836011Y-81652976D01*
X148883630Y-81557738D01*
X148883630Y-81319642D01*
X148836011Y-81224404D01*
X148788392Y-81176785D01*
X128928869Y-81700595D02*
X129928869Y-81700595D01*
X129928869Y-81462500D01*
X129881250Y-81319642D01*
X129786011Y-81224404D01*
X129690773Y-81176785D01*
X129500297Y-81129166D01*
X129357440Y-81129166D01*
X129166964Y-81176785D01*
X129071726Y-81224404D01*
X128976488Y-81319642D01*
X128928869Y-81462500D01*
X128928869Y-81700595D01*
X129595535Y-80272023D02*
X128928869Y-80272023D01*
X129976488Y-80510119D02*
X129262202Y-80748214D01*
X129262202Y-80129166D01*
X110783630Y-80224404D02*
X109783630Y-80224404D01*
X109783630Y-80462500D01*
X109831250Y-80605357D01*
X109926488Y-80700595D01*
X110021726Y-80748214D01*
X110212202Y-80795833D01*
X110355059Y-80795833D01*
X110545535Y-80748214D01*
X110640773Y-80700595D01*
X110736011Y-80605357D01*
X110783630Y-80462500D01*
X110783630Y-80224404D01*
X109783630Y-81129166D02*
X109783630Y-81748214D01*
X110164583Y-81414880D01*
X110164583Y-81557738D01*
X110212202Y-81652976D01*
X110259821Y-81700595D01*
X110355059Y-81748214D01*
X110593154Y-81748214D01*
X110688392Y-81700595D01*
X110736011Y-81652976D01*
X110783630Y-81557738D01*
X110783630Y-81272023D01*
X110736011Y-81176785D01*
X110688392Y-81129166D01*
X129833630Y-61174404D02*
X128833630Y-61174404D01*
X128833630Y-61412500D01*
X128881250Y-61555357D01*
X128976488Y-61650595D01*
X129071726Y-61698214D01*
X129262202Y-61745833D01*
X129405059Y-61745833D01*
X129595535Y-61698214D01*
X129690773Y-61650595D01*
X129786011Y-61555357D01*
X129833630Y-61412500D01*
X129833630Y-61174404D01*
X128928869Y-62126785D02*
X128881250Y-62174404D01*
X128833630Y-62269642D01*
X128833630Y-62507738D01*
X128881250Y-62602976D01*
X128928869Y-62650595D01*
X129024107Y-62698214D01*
X129119345Y-62698214D01*
X129262202Y-62650595D01*
X129833630Y-62079166D01*
X129833630Y-62698214D01*
X110783630Y-61174404D02*
X109783630Y-61174404D01*
X109783630Y-61412500D01*
X109831250Y-61555357D01*
X109926488Y-61650595D01*
X110021726Y-61698214D01*
X110212202Y-61745833D01*
X110355059Y-61745833D01*
X110545535Y-61698214D01*
X110640773Y-61650595D01*
X110736011Y-61555357D01*
X110783630Y-61412500D01*
X110783630Y-61174404D01*
X110783630Y-62698214D02*
X110783630Y-62126785D01*
X110783630Y-62412500D02*
X109783630Y-62412500D01*
X109926488Y-62317261D01*
X110021726Y-62222023D01*
X110069345Y-62126785D01*
M02*
